<?xml version="1.0" encoding="UTF-8" standalone="no"?><!-- Generator: Gravit.io --><svg xmlns="http://www.w3.org/2000/svg" xmlns:xlink="http://www.w3.org/1999/xlink" style="isolation:isolate" viewBox="0 0 196 669.46" width="196pt" height="669.46pt"><defs><clipPath id="_clipPath_ae8GTRMLru53YWJvO4iiq6HDh3nghPIs"><rect width="196" height="669.46"/></clipPath></defs><g clip-path="url(#_clipPath_ae8GTRMLru53YWJvO4iiq6HDh3nghPIs)"><g><path d=" M 177.039 572.906 C 177.039 570.219 175.169 568.791 171.734 568.791 L 170.067 568.791 L 170.067 577.259 L 171.666 577.259 C 175.169 577.259 177.039 575.763 177.039 572.906 Z  M 179.624 517.095 L 16.376 517.095 C 7.363 517.095 0.051 524.407 0.051 533.42 L 0.051 653.136 C 0.051 662.148 7.363 669.46 16.376 669.46 L 179.624 669.46 C 188.637 669.46 195.949 662.148 195.949 653.136 L 195.949 533.42 C 195.949 524.407 188.637 517.095 179.624 517.095 Z  M 164.626 564.335 C 172.312 564.335 182.617 562.941 182.617 572.634 C 182.617 576.919 180.372 579.674 176.257 580.524 L 185.032 592.223 L 178.366 592.223 L 170.816 581.068 L 170.067 581.068 L 170.067 592.223 L 164.626 592.223 L 164.626 564.335 Z  M 145.614 564.369 L 161.021 564.369 L 161.021 569.131 L 151.056 569.131 L 151.056 575.32 L 160.681 575.32 L 160.681 580.014 L 151.056 580.014 L 151.056 587.564 L 161.021 587.564 L 161.021 592.258 L 145.614 592.258 L 145.614 564.369 Z  M 122.249 564.369 L 129.697 583.143 L 137.248 564.369 L 143.199 564.369 L 131.126 593.006 L 128.201 593.006 L 116.297 564.369 L 122.249 564.369 Z  M 103.238 563.349 C 111.638 563.349 118.406 570.151 118.406 578.517 C 118.406 586.918 111.604 593.686 103.238 593.686 C 94.837 593.686 88.069 586.884 88.069 578.517 C 88.069 570.117 94.871 563.349 103.238 563.349 Z  M 86.471 565.424 L 86.471 571.885 C 79.635 565.049 70.554 570.287 70.554 578.347 C 70.554 586.85 79.907 591.441 86.471 584.877 L 86.471 591.339 C 76.37 596.203 64.942 589.401 64.942 578.347 C 64.942 567.736 76.2 560.322 86.471 565.424 L 86.471 565.424 Z  M 53.413 587.972 C 57.29 587.972 61.031 582.769 52.29 579.674 C 47.189 577.803 45.42 575.797 45.42 571.953 C 45.42 564.063 55.828 561.274 62.323 567.09 L 59.467 570.763 C 55.93 566.818 50.998 568.655 50.998 571.613 C 50.998 573.11 51.916 573.96 55.181 575.116 C 61.371 577.361 63.208 579.368 63.208 583.823 C 63.208 593.856 50.012 596.543 43.958 587.666 L 47.461 584.299 C 48.719 586.714 50.828 587.972 53.413 587.972 L 53.413 587.972 Z  M 18.893 592.258 L 10.934 592.258 L 10.934 564.369 L 18.893 564.369 C 27.769 564.369 33.891 570.151 33.891 578.347 C 33.891 584.639 29.402 592.258 18.893 592.258 Z  M 41.849 592.258 L 36.408 592.258 L 36.408 564.369 L 41.849 564.369 L 41.849 592.258 Z  M 185.066 653.476 C 185.066 656.264 182.753 658.577 179.964 658.577 L 43.584 658.577 C 108.067 646.47 173.74 611.235 185.066 604.161 L 185.066 653.476 Z  M 25.252 571.375 C 23.484 569.709 21.307 569.131 17.804 569.131 L 16.376 569.131 L 16.376 587.564 L 17.804 587.564 C 21.307 587.564 23.586 586.884 25.252 585.387 C 27.191 583.619 28.279 581.034 28.279 578.347 C 28.279 575.661 27.191 573.076 25.252 571.375 Z " fill="rgb(0,0,0)"/><path d=" M 110.635 390.916 C 110.635 385.338 105.839 384.658 101.316 384.658 L 88.018 384.556 L 88.018 408.125 L 93.596 408.125 L 93.596 399.588 L 99.718 399.588 C 105.975 399.588 104.649 403.091 104.751 408.125 L 110.397 408.125 L 110.397 403.534 C 110.397 400.405 109.887 398.398 106.656 397.276 C 109.172 396.255 110.669 393.637 110.635 390.916 L 110.635 390.916 Z  M 100.636 394.759 L 93.596 394.759 L 93.596 389.555 L 100.738 389.555 C 102.472 389.555 104.377 389.896 104.377 392.072 C 104.377 394.317 102.574 394.759 100.636 394.759 L 100.636 394.759 Z  M 94.956 425.198 L 77.033 425.198 L 69.891 432.952 L 62.919 425.198 L 40.302 425.198 L 40.268 448.767 L 62.51 448.767 L 69.755 440.945 L 76.693 448.767 L 87.644 448.767 L 87.678 440.843 C 94.106 440.843 104.445 442.407 104.445 432.918 C 104.445 427.035 100.262 425.198 94.956 425.198 L 94.956 425.198 Z  M 59.654 443.801 L 45.846 443.801 L 45.846 439.108 L 58.191 439.108 L 58.191 434.313 L 45.846 434.313 L 45.846 430.061 L 60.028 430.061 L 66.116 436.931 L 59.654 443.801 Z  M 82.032 446.59 L 73.428 437.033 L 82.032 427.715 L 82.032 446.59 Z  M 94.888 436.047 L 87.678 436.047 L 87.678 430.061 L 94.99 430.061 C 96.895 430.061 98.459 430.844 98.459 432.918 C 98.459 435.095 96.895 436.047 94.888 436.047 L 94.888 436.047 Z  M 84.141 389.555 L 84.141 384.59 L 65.265 384.59 L 65.265 408.159 L 84.141 408.159 L 84.141 403.296 L 70.911 403.296 L 70.911 398.602 L 83.767 398.602 L 83.767 393.807 L 70.911 393.807 L 70.911 389.555 L 84.141 389.555 Z  M 195.966 420.709 L 195.898 420.709 L 195.966 420.709 Z  M 129.782 431.558 C 129.782 425.98 124.987 425.198 120.566 425.198 L 107.166 425.198 L 107.132 448.767 L 112.777 448.767 L 112.811 440.162 L 118.797 440.162 C 122.538 440.162 123.831 440.843 123.831 444.856 L 123.797 448.767 L 129.442 448.767 L 129.476 444.074 C 129.476 441.047 128.864 438.938 125.735 437.816 C 128.354 436.761 129.748 434.143 129.782 431.558 L 129.782 431.558 Z  M 119.851 435.367 L 112.811 435.367 L 112.811 430.061 L 119.953 430.061 C 121.688 430.061 123.593 430.402 123.593 432.578 C 123.593 434.925 121.756 435.367 119.851 435.367 L 119.851 435.367 Z  M 61.082 408.159 L 61.082 384.59 L 51.695 384.59 L 44.995 400.575 L 37.615 384.59 L 28.398 384.59 L 28.398 406.935 L 18.842 384.59 L 10.509 384.59 L 0.408 408.159 L 6.496 408.159 L 8.673 402.955 L 20.406 402.955 L 22.583 408.159 L 34.078 408.159 L 34.078 389.725 L 42.24 408.159 L 47.206 408.159 L 55.368 389.725 L 55.368 408.159 L 61.082 408.159 Z  M 10.679 398.058 L 14.488 388.671 L 18.399 398.058 L 10.679 398.058 Z  M 173.043 452.1 L 173.043 450.569 C 169.37 452.474 171.717 452.1 119.749 452.1 C 119.749 443.529 119.783 443.972 119.749 443.529 C 119.171 443.495 118.661 443.495 116.552 443.495 C 116.552 449.583 116.518 445.808 116.518 452.1 L 103.05 452.1 C 103.05 447.985 103.085 446.896 103.085 442.169 C 99.683 444.21 95.33 444.346 91.419 444.278 C 91.419 449.277 91.385 447.1 91.385 452.1 L 74.754 452.1 C 73.02 450.161 73.836 451.046 69.517 446.182 C 68.428 447.373 65.163 450.91 64.041 452.1 L 36.153 452.1 L 36.153 420.709 L 64.415 420.709 C 66.116 422.613 65.367 421.763 69.687 426.558 C 70.775 425.368 73.836 422.001 75.026 420.709 L 94.752 420.709 C 98.085 420.709 100.874 421.355 103.016 422.613 L 103.016 420.709 C 121.484 420.709 124.885 420.233 128.762 422.443 L 128.762 420.709 L 155.358 420.709 L 155.358 422.477 C 159.235 420.13 162.024 420.709 177.431 420.709 L 177.431 422.409 C 180.934 420.403 183.076 420.641 195.898 420.709 L 195.898 361.055 C 195.898 352.042 188.586 344.73 179.573 344.73 L 16.325 344.73 C 7.312 344.73 0 352.042 0 361.055 L 0 398.398 C 3.197 390.95 6.7 382.753 7.856 380.067 L 21.358 380.067 C 22.821 383.502 21.902 381.325 24.419 387.243 L 24.419 380.067 L 40.064 380.067 C 41.05 382.175 43.839 388.229 44.791 390.27 C 46.764 385.644 48.226 382.141 49.077 380.067 L 84.107 380.067 C 84.107 380.033 88.018 380.067 88.052 380.067 C 102.914 380.135 106.281 379.795 109.955 381.869 L 109.955 380.067 L 123.525 380.067 L 123.525 383.23 C 126.109 381.155 129.612 380.067 133.966 380.067 L 143.352 380.067 C 143.352 380.237 143.999 380.169 144.135 380.169 L 155.154 380.169 C 156.582 383.502 156.038 382.209 158.147 387.175 L 158.147 380.169 L 172.873 380.169 C 174.54 382.889 172.533 379.556 176.682 386.427 L 176.682 380.169 L 190.252 380.169 L 190.252 411.458 L 176.104 411.458 C 174.268 408.397 175.628 410.71 171.615 404.01 L 171.615 411.458 L 153.657 411.458 C 151.481 406.424 153.623 411.356 151.413 406.254 L 144.951 406.254 C 143.522 409.655 144.203 408.023 142.774 411.458 L 133.66 411.458 C 129.476 411.458 126.075 410.438 123.559 408.431 L 123.559 411.458 L 100.942 411.458 C 100.84 406.731 100.908 403.023 100.908 403.023 C 100.296 402.921 99.752 402.955 97.575 402.955 L 97.575 411.492 L 51.491 411.492 L 51.491 407.615 C 50.641 409.519 50.573 409.621 49.757 411.492 L 39.724 411.492 C 38.363 408.465 38.737 409.315 37.989 407.615 L 37.989 411.492 L 19.998 411.492 C 18.569 408.057 19.25 409.689 17.821 406.288 L 11.291 406.288 C 9.863 409.689 10.543 408.057 9.115 411.492 L 0.068 411.492 L 0.068 480.77 C 0.068 489.783 7.38 497.095 16.393 497.095 L 179.675 497.095 C 188.688 497.095 196 489.783 196 480.77 L 196 450.025 C 191.681 452.848 184.879 452.1 173.043 452.1 L 173.043 452.1 Z  M 185.389 430.163 L 195.626 430.163 L 195.626 425.198 L 184.437 425.198 C 180.083 425.198 176.342 427.443 176.342 432.238 C 176.342 443.461 190.864 436.591 190.864 441.557 C 190.864 443.291 189.402 443.733 188.008 443.733 L 177.124 443.733 L 177.09 448.767 L 187.974 448.767 C 190.83 448.767 193.959 448.155 195.626 445.74 L 195.626 436.965 C 192.055 432.272 182.26 436.523 182.26 432.374 C 182.26 430.402 183.824 430.163 185.389 430.163 L 185.389 430.163 Z  M 166.003 443.699 L 155.052 443.699 L 155.018 448.733 L 165.969 448.733 C 171.003 448.733 174.88 446.828 174.88 441.251 C 174.88 429.959 160.289 437.442 160.289 432.306 C 160.289 430.402 161.956 430.129 163.418 430.129 L 173.757 430.129 L 173.757 425.164 L 162.466 425.164 C 158.113 425.164 154.474 427.409 154.474 432.204 C 154.474 443.427 168.996 436.455 168.996 441.523 C 168.962 443.359 167.398 443.699 166.003 443.699 L 166.003 443.699 Z  M 151.651 430.061 L 151.651 425.198 L 132.877 425.198 L 132.843 448.767 L 151.617 448.767 L 151.651 443.904 L 138.523 443.801 L 138.523 439.108 L 151.413 439.108 L 151.413 434.313 L 138.557 434.313 L 138.557 430.061 L 151.651 430.061 Z  M 132.503 393.297 C 132.401 393.365 132.027 394.045 132.027 395.881 C 132.027 397.922 132.333 398.5 132.401 398.568 C 132.469 398.602 132.775 398.738 133.558 398.738 L 136.04 392.99 C 135.666 392.99 135.326 392.956 134.986 392.956 C 133.081 392.956 132.605 393.195 132.503 393.297 Z  M 139.441 389.725 L 139.407 389.725 L 139.441 389.725 Z  M 133.932 384.556 C 125.939 384.556 122.368 388.637 122.368 396.562 C 122.368 404.112 125.837 408.125 133.592 408.125 L 140.121 408.125 L 142.298 402.921 L 153.964 402.921 L 156.208 408.125 L 167.67 408.125 L 167.67 390.474 L 178.281 408.125 L 186.307 408.125 L 186.307 384.658 L 180.559 384.658 L 180.559 401.017 L 170.663 384.658 L 162.058 384.658 L 162.058 406.901 L 152.569 384.658 L 144.135 384.658 L 136.142 403.193 L 133.626 403.193 C 129.102 403.193 128.15 400.439 128.15 396.425 C 128.15 388.331 133.49 389.623 139.407 389.725 L 139.407 384.556 L 133.932 384.556 Z  M 148.25 388.671 L 152.059 398.058 L 144.305 398.058 L 148.25 388.671 Z  M 113.866 384.59 L 113.866 408.159 L 119.613 408.159 L 119.613 384.59 L 113.866 384.59 Z " fill="rgb(0,0,0)"/><path d=" M 164.286 300.685 C 164.286 302.998 162.721 304.664 160.476 304.664 C 158.164 304.664 156.667 302.896 156.667 300.685 C 156.667 298.474 158.164 296.706 160.476 296.706 C 162.721 296.706 164.286 298.474 164.286 300.685 Z  M 58.582 296.706 C 56.168 296.706 54.773 298.474 54.773 300.685 C 54.773 302.896 56.168 304.664 58.582 304.664 C 60.793 304.664 62.289 302.998 62.289 300.685 C 62.255 298.474 60.793 296.706 58.582 296.706 Z  M 98.544 296.604 C 96.708 296.604 95.585 297.794 95.313 299.563 L 101.809 299.563 C 101.503 297.624 100.313 296.604 98.544 296.604 Z  M 135.207 296.706 C 132.894 296.706 131.5 298.474 131.5 300.685 C 131.5 302.896 132.894 304.664 135.207 304.664 C 137.52 304.664 139.016 302.998 139.016 300.685 C 139.016 298.474 137.52 296.706 135.207 296.706 Z  M 171.224 305.583 C 171.224 305.685 171.326 305.753 171.326 305.957 C 171.326 306.059 171.224 306.127 171.224 306.331 C 171.122 306.433 171.122 306.501 171.054 306.603 C 170.952 306.705 170.884 306.773 170.68 306.773 C 170.577 306.875 170.509 306.875 170.305 306.875 C 170.203 306.875 170.135 306.875 169.931 306.773 C 169.829 306.773 169.761 306.671 169.659 306.603 C 169.557 306.501 169.489 306.433 169.489 306.331 C 169.387 306.161 169.387 306.059 169.387 305.957 C 169.387 305.787 169.387 305.685 169.489 305.583 C 169.489 305.412 169.591 305.31 169.659 305.208 C 169.761 305.106 169.829 305.106 169.931 305.038 C 170.101 304.936 170.203 304.936 170.305 304.936 C 170.475 304.936 170.577 304.936 170.68 305.038 C 170.85 305.14 170.952 305.14 171.054 305.208 C 171.156 305.276 171.122 305.412 171.224 305.583 Z  M 170.475 306.059 C 170.645 306.059 170.645 305.957 170.748 305.957 C 170.85 305.855 170.85 305.787 170.85 305.685 C 170.85 305.583 170.85 305.514 170.748 305.412 C 170.645 305.412 170.577 305.31 170.373 305.31 L 169.829 305.31 L 169.829 306.501 L 170.101 306.501 L 170.101 306.025 L 170.203 306.025 L 170.577 306.501 L 170.85 306.501 L 170.475 306.059 L 170.475 306.059 Z  M 195.949 188.69 L 195.949 308.405 C 195.949 317.418 188.637 324.73 179.624 324.73 L 16.376 324.73 C 7.363 324.73 0.051 317.418 0.051 308.405 L 0.051 188.69 C 0.051 179.677 7.363 172.365 16.376 172.365 L 179.624 172.365 C 188.637 172.365 195.949 179.677 195.949 188.69 Z  M 21.817 236.168 C 21.817 262.186 42.938 283.272 68.921 283.272 C 78.172 283.272 87.253 280.483 94.939 275.416 C 70.146 255.248 70.316 217.19 94.939 197.022 C 87.253 191.921 78.172 189.166 68.921 189.166 C 42.938 189.132 21.817 210.252 21.817 236.168 Z  M 98 273.171 C 121.977 254.465 121.875 218.007 98 199.199 C 74.125 218.007 74.023 254.499 98 273.171 Z  M 49.604 299.121 C 49.604 296.162 47.665 294.223 44.604 294.121 C 43.04 294.121 41.373 294.597 40.251 296.332 C 39.435 294.937 38.04 294.121 36.102 294.121 C 34.809 294.121 33.517 294.597 32.497 295.958 L 32.497 294.461 L 29.708 294.461 L 29.708 306.943 L 32.497 306.943 C 32.497 300.515 31.646 296.672 35.558 296.672 C 39.027 296.672 38.346 300.141 38.346 306.943 L 41.033 306.943 C 41.033 300.719 40.183 296.672 44.094 296.672 C 47.563 296.672 46.883 300.073 46.883 306.943 L 49.672 306.943 L 49.672 299.121 L 49.604 299.121 Z  M 64.874 294.461 L 62.187 294.461 L 62.187 295.958 C 61.269 294.835 59.977 294.121 58.208 294.121 C 54.705 294.121 52.018 296.91 52.018 300.685 C 52.018 304.494 54.705 307.249 58.208 307.249 C 59.977 307.249 61.269 306.603 62.187 305.412 L 62.187 306.977 L 64.874 306.977 L 64.874 294.461 Z  M 78.648 303.168 C 78.648 298.066 70.86 300.379 70.86 297.998 C 70.86 296.06 74.907 296.366 77.152 297.624 L 78.274 295.413 C 75.077 293.339 68.003 293.373 68.003 298.202 C 68.003 303.066 75.791 301.025 75.791 303.304 C 75.791 305.446 71.2 305.276 68.751 303.576 L 67.561 305.719 C 71.37 308.303 78.648 307.759 78.648 303.168 L 78.648 303.168 Z  M 90.688 306.331 L 89.94 304.018 C 88.647 304.732 85.79 305.514 85.79 302.624 L 85.79 296.978 L 90.246 296.978 L 90.246 294.461 L 85.79 294.461 L 85.79 290.652 L 83.002 290.652 L 83.002 294.461 L 80.417 294.461 L 80.417 296.944 L 83.002 296.944 L 83.002 302.624 C 83.002 308.609 88.885 307.521 90.688 306.331 L 90.688 306.331 Z  M 95.211 301.773 L 104.564 301.773 C 104.564 296.264 102.047 294.087 98.646 294.087 C 95.041 294.087 92.456 296.774 92.456 300.651 C 92.456 307.623 100.143 308.779 103.952 305.48 L 102.659 303.44 C 100.007 305.617 95.993 305.412 95.211 301.773 L 95.211 301.773 Z  M 115.311 294.461 C 113.747 293.781 111.366 293.849 110.142 295.958 L 110.142 294.461 L 107.353 294.461 L 107.353 306.943 L 110.142 306.943 L 110.142 299.903 C 110.142 295.958 113.373 296.468 114.495 297.046 L 115.311 294.461 L 115.311 294.461 Z  M 118.916 300.685 C 118.916 296.808 122.861 295.55 125.956 297.828 L 127.249 295.618 C 123.303 292.523 116.127 294.223 116.127 300.719 C 116.127 307.453 123.746 308.813 127.249 305.821 L 125.956 303.61 C 122.827 305.821 118.916 304.494 118.916 300.685 Z  M 141.601 294.461 L 138.812 294.461 L 138.812 295.958 C 135.989 292.217 128.643 294.325 128.643 300.685 C 128.643 307.215 136.261 309.086 138.812 305.412 L 138.812 306.977 L 141.601 306.977 L 141.601 294.461 L 141.601 294.461 Z  M 153.062 294.461 C 152.246 294.053 149.321 293.475 147.893 295.958 L 147.893 294.461 L 145.206 294.461 L 145.206 306.943 L 147.893 306.943 L 147.893 299.903 C 147.893 296.162 150.954 296.4 152.246 297.046 L 153.062 294.461 L 153.062 294.461 Z  M 166.768 289.394 L 164.082 289.394 L 164.082 295.958 C 161.293 292.251 153.913 294.223 153.913 300.685 C 153.913 307.283 161.565 309.052 164.082 305.412 L 164.082 306.977 L 166.768 306.977 L 166.768 289.394 Z  M 169.353 263.852 L 169.353 265.417 L 169.625 265.417 L 169.625 263.852 L 170.271 263.852 L 170.271 263.58 L 168.707 263.58 L 168.707 263.852 L 169.353 263.852 L 169.353 263.852 Z  M 171.598 305.957 C 171.598 305.787 171.598 305.583 171.496 305.412 C 171.394 305.31 171.326 305.14 171.224 305.038 C 171.122 304.936 170.952 304.868 170.85 304.766 C 170.68 304.766 170.475 304.664 170.305 304.664 C 170.203 304.664 170.033 304.766 169.829 304.766 C 169.659 304.868 169.557 304.936 169.455 305.038 C 169.285 305.14 169.183 305.31 169.183 305.412 C 169.081 305.583 169.081 305.787 169.081 305.957 C 169.081 306.059 169.081 306.229 169.183 306.433 C 169.183 306.535 169.285 306.705 169.455 306.807 C 169.557 306.909 169.625 306.977 169.829 307.079 C 169.999 307.181 170.203 307.181 170.305 307.181 C 170.475 307.181 170.68 307.181 170.85 307.079 C 170.952 306.977 171.122 306.909 171.224 306.807 C 171.326 306.705 171.394 306.535 171.496 306.433 C 171.598 306.229 171.598 306.059 171.598 305.957 Z  M 172.686 263.546 L 172.21 263.546 L 171.666 264.736 L 171.122 263.546 L 170.645 263.546 L 170.645 265.383 L 170.918 265.383 L 170.918 263.988 L 171.462 265.179 L 171.836 265.179 L 172.312 263.988 L 172.312 265.383 L 172.686 265.383 L 172.686 263.546 L 172.686 263.546 Z  M 174.183 236.168 C 174.183 210.252 153.062 189.132 127.079 189.132 C 117.828 189.132 108.747 191.921 101.061 196.988 C 125.582 217.156 125.956 255.316 101.061 275.382 C 108.747 280.483 117.896 283.238 127.079 283.238 C 153.062 283.272 174.183 262.186 174.183 236.168 L 174.183 236.168 Z " fill="rgb(0,0,0)"/><path d=" M 159.932 67.782 C 159.932 67.782 162.517 80.434 163.095 83.087 L 151.736 83.087 C 152.858 80.06 157.178 68.292 157.178 68.292 C 157.109 68.394 158.3 65.197 158.98 63.225 L 159.932 67.782 Z  M 195.949 16.325 L 195.949 136.04 C 195.949 145.053 188.637 152.365 179.624 152.365 L 16.376 152.365 C 7.363 152.365 0.051 145.053 0.051 136.04 L 0.051 16.325 C 0.051 7.312 7.363 0 16.376 0 L 179.624 0 C 188.637 0 195.949 7.312 195.949 16.325 Z  M 51.916 101.758 L 73.411 48.974 L 58.956 48.974 L 45.59 85.025 L 44.128 77.713 L 39.367 53.43 C 38.584 50.063 36.17 49.111 33.177 48.974 L 11.172 48.974 L 10.934 50.029 C 16.308 51.389 21.103 53.362 25.286 55.845 L 37.462 101.758 L 51.916 101.758 Z  M 84.022 101.826 L 92.592 48.974 L 78.92 48.974 L 70.384 101.826 L 84.022 101.826 L 84.022 101.826 Z  M 131.602 84.549 C 131.67 78.529 127.997 73.938 120.141 70.163 C 115.345 67.748 112.42 66.116 112.42 63.633 C 112.488 61.388 114.903 59.075 120.277 59.075 C 124.732 58.973 127.997 60.028 130.446 61.082 L 131.67 61.66 L 133.541 50.233 C 130.854 49.179 126.568 47.988 121.297 47.988 C 107.795 47.988 98.306 55.198 98.238 65.469 C 98.136 73.054 105.04 77.271 110.21 79.822 C 115.481 82.406 117.284 84.107 117.284 86.386 C 117.216 89.923 112.998 91.555 109.087 91.555 C 103.646 91.555 100.721 90.705 96.265 88.732 L 94.463 87.882 L 92.558 99.752 C 95.755 101.214 101.673 102.506 107.795 102.574 C 122.147 102.608 131.5 95.5 131.602 84.549 Z  M 179.624 101.826 L 168.605 48.974 L 158.028 48.974 C 154.763 48.974 152.28 49.927 150.886 53.362 L 130.582 101.826 L 144.934 101.826 C 144.934 101.826 147.281 95.296 147.791 93.902 L 165.34 93.902 C 165.748 95.772 166.972 101.826 166.972 101.826 L 179.624 101.826 Z " fill="rgb(0,0,0)"/></g></g></svg>